<svg width="204" height="59" fill="none" xmlns="http://www.w3.org/2000/svg"><path d="M196.396 59H7.554C3.4 59 0 55.68 0 51.625V7.375C0 3.321 3.401 0 7.554 0h188.842c4.153 0 7.554 3.32 7.554 7.375v44.25c0 4.054-3.401 7.375-7.554 7.375z" fill="#000"/><path d="M196.396 1.182c3.498 0 6.344 2.778 6.344 6.193v44.25c0 3.415-2.846 6.193-6.344 6.193H7.554c-3.498 0-6.344-2.778-6.344-6.193V7.375c0-3.415 2.846-6.193 6.344-6.193h188.842zm0-1.182H7.554C3.4 0 0 3.32 0 7.375v44.25C0 55.679 3.401 59 7.554 59h188.842c4.153 0 7.554-3.32 7.554-7.375V7.375c0-4.054-3.401-7.375-7.554-7.375z" fill="#A6A6A6"/><path d="M71.636 15.11c0 1.231-.378 2.218-1.122 2.953-.855.872-1.97 1.311-3.335 1.311-1.305 0-2.419-.446-3.333-1.325-.916-.893-1.373-1.988-1.373-3.299 0-1.31.457-2.406 1.373-3.291.914-.887 2.028-1.333 3.333-1.333.65 0 1.27.13 1.86.374.59.245 1.069.577 1.416.987l-.789.778c-.606-.7-1.431-1.044-2.487-1.044-.952 0-1.777.325-2.478.98-.693.655-1.04 1.505-1.04 2.549s.347 1.9 1.04 2.557c.701.647 1.526.98 2.478.98 1.01 0 1.86-.333 2.53-.987.442-.433.694-1.03.76-1.794h-3.29V14.44h4.389c.053.23.068.454.068.67zM78.598 11.415h-4.122v2.802h3.716v1.066h-3.716v2.802h4.122v1.086h-5.29V10.33h5.29v1.086zM83.512 19.171h-1.167v-7.756h-2.529v-1.086h6.227v1.086h-2.53v7.756zM90.548 19.171V10.33h1.165v8.842h-1.165zM96.878 19.171h-1.157v-7.756h-2.538v-1.086h6.233v1.086h-2.538v7.756zM111.204 18.034c-.894.894-2 1.34-3.32 1.34-1.328 0-2.434-.446-3.328-1.34-.891-.893-1.335-1.988-1.335-3.284 0-1.296.444-2.391 1.335-3.284.894-.894 2-1.34 3.328-1.34 1.312 0 2.419.446 3.312 1.348.899.9 1.343 1.987 1.343 3.276 0 1.296-.444 2.391-1.335 3.284zm-5.785-.741c.673.661 1.49.993 2.465.993.967 0 1.792-.332 2.457-.994.67-.661 1.01-1.511 1.01-2.542 0-1.03-.34-1.88-1.01-2.543-.665-.661-1.49-.993-2.457-.993-.975 0-1.792.332-2.465.993-.67.662-1.01 1.512-1.01 2.543 0 1.03.34 1.88 1.01 2.543zM114.176 19.171V10.33h1.417l4.403 6.877h.051l-.051-1.7v-5.177h1.166v8.842h-1.217l-4.611-7.216h-.051l.051 1.707v5.51h-1.158z" fill="#fff" stroke="#fff" stroke-width=".16" stroke-miterlimit="10"/><path d="M102.934 32.085c-3.548 0-6.447 2.636-6.447 6.274 0 3.608 2.9 6.273 6.447 6.273 3.556 0 6.455-2.664 6.455-6.273 0-3.638-2.899-6.274-6.455-6.274zm0 10.076c-1.946 0-3.621-1.569-3.621-3.802 0-2.262 1.675-3.803 3.621-3.803 1.947 0 3.63 1.541 3.63 3.803 0 2.233-1.683 3.802-3.63 3.802zM88.868 32.085c-3.556 0-6.447 2.636-6.447 6.274 0 3.608 2.89 6.273 6.447 6.273 3.554 0 6.447-2.664 6.447-6.273 0-3.638-2.893-6.274-6.447-6.274zm0 10.076c-1.95 0-3.63-1.569-3.63-3.802 0-2.262 1.68-3.803 3.63-3.803 1.947 0 3.622 1.541 3.622 3.803 0 2.233-1.675 3.802-3.622 3.802zm-16.74-8.153v2.666h6.521c-.19 1.49-.7 2.585-1.482 3.348-.952.922-2.434 1.946-5.038 1.946-4.013 0-7.156-3.163-7.156-7.08 0-3.918 3.143-7.08 7.156-7.08 2.17 0 3.748.827 4.913 1.9l1.925-1.878c-1.63-1.52-3.798-2.687-6.838-2.687-5.503 0-10.128 4.372-10.128 9.745 0 5.372 4.625 9.744 10.128 9.744 2.974 0 5.208-.952 6.964-2.736 1.8-1.758 2.36-4.228 2.36-6.223 0-.62-.052-1.19-.147-1.665H72.13zm68.448 2.067c-.53-1.403-2.167-3.99-5.502-3.99-3.305 0-6.057 2.542-6.057 6.274 0 3.514 2.724 6.273 6.374 6.273 2.951 0 4.655-1.757 5.355-2.78l-2.19-1.426c-.731 1.044-1.726 1.735-3.165 1.735-1.43 0-2.455-.64-3.112-1.9l8.594-3.473-.297-.713zm-8.762 2.089a3.48 3.48 0 013.356-3.658c1.122 0 2.073.547 2.391 1.331l-5.747 2.327zm-6.985 6.086h2.825V25.812h-2.825V44.25zm-4.627-10.767h-.094c-.635-.734-1.845-1.398-3.379-1.398-3.217 0-6.16 2.758-6.16 6.294 0 3.517 2.943 6.253 6.16 6.253 1.534 0 2.744-.67 3.379-1.425h.094v.9c0 2.398-1.312 3.687-3.429 3.687-1.726 0-2.797-1.217-3.239-2.24l-2.457 1c.709 1.664 2.584 3.71 5.696 3.71 3.312 0 6.107-1.902 6.107-6.532V32.467h-2.678v1.016zm-3.231 8.678c-1.947 0-3.577-1.591-3.577-3.782 0-2.21 1.63-3.823 3.577-3.823 1.919 0 3.431 1.613 3.431 3.824 0 2.19-1.512 3.781-3.431 3.781zm36.832-16.349h-6.757V44.25h2.818v-6.986h3.939c3.129 0 6.198-2.21 6.198-5.727 0-3.514-3.076-5.724-6.198-5.724zm.074 8.887h-4.013v-6.322h4.013c2.103 0 3.304 1.706 3.304 3.16 0 1.427-1.201 3.162-3.304 3.162zm17.417-2.65c-2.036 0-4.153.879-5.024 2.824l2.501 1.023c.538-1.023 1.527-1.355 2.574-1.355 1.461 0 2.944.857 2.966 2.37v.194c-.51-.287-1.601-.713-2.944-.713-2.693 0-5.437 1.447-5.437 4.148 0 2.471 2.206 4.062 4.686 4.062 1.896 0 2.942-.835 3.599-1.807h.096v1.425h2.722v-7.072c0-3.27-2.501-5.098-5.739-5.098zm-.34 10.105c-.922 0-2.206-.447-2.206-1.562 0-1.427 1.601-1.975 2.988-1.975 1.24 0 1.822.268 2.575.62-.221 1.707-1.726 2.917-3.357 2.917zm15.993-9.7l-3.239 7.992h-.096l-3.348-7.992h-3.039l5.031 11.17-2.87 6.214h2.944l7.752-17.384h-3.135zM161.549 44.25h2.825V25.812h-2.825V44.25z" fill="#fff"/><path d="M15.765 11.12c-.444.453-.701 1.16-.701 2.074v32.62c0 .914.257 1.62.7 2.074l.11.1 18.722-18.272v-.432L15.874 11.013l-.11.107z" fill="url(#prefix__paint0_linear_738_7007)"/><path d="M40.83 35.81l-6.234-6.094v-.432l6.241-6.093.14.079 7.391 4.106c2.11 1.165 2.11 3.083 0 4.255l-7.391 4.099-.148.08z" fill="url(#prefix__paint1_linear_738_7007)"/><path d="M40.977 35.73l-6.381-6.23-18.831 18.388c.7.719 1.843.805 3.142.086l22.07-12.244z" fill="url(#prefix__paint2_linear_738_7007)"/><path d="M40.977 23.27l-22.07-12.244c-1.3-.712-2.442-.625-3.142.094L34.596 29.5l6.381-6.23z" fill="url(#prefix__paint3_linear_738_7007)"/><defs><linearGradient id="prefix__paint0_linear_738_7007" x1="32.934" y1="46.153" x2="8.187" y2="20.807" gradientUnits="userSpaceOnUse"><stop stop-color="#00A0FF"/><stop offset=".007" stop-color="#00A1FF"/><stop offset=".26" stop-color="#00BEFF"/><stop offset=".512" stop-color="#00D2FF"/><stop offset=".76" stop-color="#00DFFF"/><stop offset="1" stop-color="#00E3FF"/></linearGradient><linearGradient id="prefix__paint1_linear_738_7007" x1="51.115" y1="29.498" x2="14.559" y2="29.498" gradientUnits="userSpaceOnUse"><stop stop-color="#FFE000"/><stop offset=".409" stop-color="#FFBD00"/><stop offset=".775" stop-color="orange"/><stop offset="1" stop-color="#FF9C00"/></linearGradient><linearGradient id="prefix__paint2_linear_738_7007" x1="37.507" y1="26.113" x2="3.948" y2="-8.259" gradientUnits="userSpaceOnUse"><stop stop-color="#FF3A44"/><stop offset="1" stop-color="#C31162"/></linearGradient><linearGradient id="prefix__paint3_linear_738_7007" x1="11.024" y1="58.74" x2="26.01" y2="43.392" gradientUnits="userSpaceOnUse"><stop stop-color="#32A071"/><stop offset=".069" stop-color="#2DA771"/><stop offset=".476" stop-color="#15CF74"/><stop offset=".801" stop-color="#06E775"/><stop offset="1" stop-color="#00F076"/></linearGradient></defs></svg>
